# xmcd
#
# Track frame offsets: 
#        183
#        94750
#        108360
#        122500
#        139368
#        156705
#        182055
#
# Disc length: 2592 seconds
#
# Revision: 2
# Processed by: cddbd v1.5.2PL0 Copyright (c) Steve Scherf et al.
# Submitted via: ExactAudioCopyFreeDBPlugin 1.0
#
DISCID=600a1e07
DTITLE=Chick Willis - Stoop Down Baby Let Your Daddy See
DYEAR=1991
DGENRE=Blues
TTITLE0=Stoop Down Baby Let Your Daddy See
TTITLE1=The Things I Used To Do
TTITLE2=My Story
TTITLE3=Mother Fuyer
TTITLE4=Something To Remember You By
TTITLE5=Sometime Soon
TTITLE6=This Is My Life
EXTD=
EXTT0=
EXTT1=
EXTT2=
EXTT3=
EXTT4=
EXTT5=
EXTT6=
PLAYORDER=
